<svg width="50" height="52" viewBox="0 0 50 52" fill="none" xmlns="http://www.w3.org/2000/svg">
<path d="M46.3494 0H37.8194C37.5042 0.00391512 37.1929 0.0698779 36.9032 0.19412C36.6135 0.318363 36.3512 0.498451 36.1311 0.724102C35.911 0.949753 35.7375 1.21655 35.6206 1.50925C35.5036 1.80195 35.4454 2.11482 35.4494 2.43V35.87C35.4458 36.1935 35.5476 36.5094 35.7394 36.77L41.6694 44.77C41.714 44.8381 41.7748 44.894 41.8464 44.9327C41.9179 44.9714 41.998 44.9917 42.0794 44.9917C42.1608 44.9917 42.2409 44.9714 42.3125 44.9327C42.384 44.894 42.4449 44.8381 42.4894 44.77L48.4294 36.77C48.6139 36.5063 48.7118 36.1918 48.7094 35.87V2.43C48.7174 1.79517 48.4736 1.18303 48.0313 0.727592C47.589 0.272155 46.9842 0.0105306 46.3494 0V0ZM40.7294 40.27L39.3894 37.69L40.7494 35.5L42.0794 38.08L43.5294 35.7L44.7694 38.13L43.3294 40.5L42.6694 41.5H41.3794L40.7294 40.27ZM47.4394 4.37C47.4433 4.44328 47.4433 4.51672 47.4394 4.59V4.59V6.5H36.7294V4.59C36.7207 4.51693 36.7207 4.44307 36.7294 4.37V2.61C36.7268 2.44895 36.756 2.28897 36.8155 2.13929C36.875 1.98961 36.9636 1.8532 37.0761 1.73792C37.1886 1.62264 37.3228 1.53077 37.471 1.46762C37.6191 1.40448 37.7783 1.3713 37.9394 1.37H46.2694C46.5912 1.37787 46.8969 1.51262 47.1198 1.74489C47.3427 1.97716 47.4648 2.28812 47.4594 2.61L47.4394 4.37Z" fill="#141616"/>
<path d="M47.7305 48.44H1.80047C0.933382 48.44 0.230469 49.1407 0.230469 50.005C0.230469 50.8693 0.933382 51.57 1.80047 51.57H47.7305C48.5976 51.57 49.3005 50.8693 49.3005 50.005C49.3005 49.1407 48.5976 48.44 47.7305 48.44Z" fill="#141616"/>
<path d="M29.35 35.13H1.57C0.702913 35.13 0 35.8307 0 36.695C0 37.5593 0.702913 38.26 1.57 38.26H29.35C30.2171 38.26 30.92 37.5593 30.92 36.695C30.92 35.8307 30.2171 35.13 29.35 35.13Z" fill="#141616"/>
</svg>
