<svg width="368" height="368" viewBox="0 0 368 368" fill="none" xmlns="http://www.w3.org/2000/svg">
<g clip-path="url(#clip0_692_124)">
<path d="M143.605 155.084H125.416C123.712 155.078 122.08 154.396 120.878 153.189C119.675 151.981 119 150.346 119 148.642V130.465C119 128.76 119.675 127.125 120.878 125.917C122.08 124.71 123.712 124.029 125.416 124.023H143.605C145.309 124.029 146.94 124.71 148.143 125.917C149.346 127.125 150.021 128.76 150.021 130.465V148.642C150.021 150.346 149.346 151.981 148.143 153.189C146.94 154.396 145.309 155.078 143.605 155.084ZM125.416 128.527C124.906 128.533 124.42 128.74 124.061 129.103C123.703 129.465 123.502 129.955 123.502 130.465V148.642C123.499 148.895 123.547 149.146 123.641 149.381C123.736 149.616 123.877 149.83 124.055 150.01C124.233 150.19 124.445 150.333 124.678 150.431C124.912 150.529 125.163 150.579 125.416 150.579H143.605C143.858 150.579 144.109 150.529 144.343 150.431C144.576 150.333 144.788 150.19 144.966 150.01C145.144 149.83 145.285 149.616 145.379 149.381C145.474 149.146 145.521 148.895 145.518 148.642V130.465C145.519 129.955 145.318 129.465 144.959 129.103C144.601 128.74 144.115 128.533 143.605 128.527H125.416Z" fill="#E5B739"/>
<path d="M143.605 195.042H125.416C123.712 195.036 122.08 194.355 120.878 193.147C119.675 191.94 119 190.304 119 188.6V170.423C119 168.718 119.675 167.083 120.878 165.875C122.08 164.668 123.712 163.987 125.416 163.981H143.605C145.309 163.987 146.94 164.668 148.143 165.875C149.346 167.083 150.021 168.718 150.021 170.423V188.6C150.021 190.304 149.346 191.94 148.143 193.147C146.94 194.355 145.309 195.036 143.605 195.042V195.042ZM125.416 168.598C125.163 168.598 124.912 168.648 124.678 168.746C124.445 168.844 124.233 168.987 124.055 169.167C123.877 169.347 123.736 169.561 123.641 169.796C123.547 170.031 123.499 170.282 123.502 170.535V188.712C123.502 189.222 123.703 189.712 124.061 190.074C124.42 190.437 124.906 190.644 125.416 190.65H143.605C144.115 190.644 144.601 190.437 144.959 190.074C145.318 189.712 145.519 189.222 145.518 188.712V170.535C145.521 170.282 145.474 170.031 145.379 169.796C145.285 169.561 145.144 169.347 144.966 169.167C144.788 168.987 144.576 168.844 144.343 168.746C144.109 168.648 143.858 168.598 143.605 168.598H125.416Z" fill="#E5B739"/>
<path d="M143.605 235H125.416C123.716 234.994 122.088 234.316 120.886 233.113C119.684 231.911 119.006 230.281 119 228.581V210.381C119.006 208.68 119.684 207.051 120.886 205.848C122.088 204.646 123.716 203.967 125.416 203.961H143.605C145.305 203.967 146.933 204.646 148.135 205.848C149.337 207.051 150.015 208.68 150.021 210.381V228.581C150.015 230.281 149.337 231.911 148.135 233.113C146.933 234.316 145.305 234.994 143.605 235V235ZM125.416 208.466C124.908 208.466 124.422 208.668 124.063 209.027C123.704 209.386 123.502 209.873 123.502 210.381V228.581C123.502 229.088 123.704 229.575 124.063 229.934C124.422 230.293 124.908 230.495 125.416 230.495H143.605C144.112 230.495 144.599 230.293 144.958 229.934C145.317 229.575 145.518 229.088 145.518 228.581V210.381C145.518 209.873 145.317 209.386 144.958 209.027C144.599 208.668 144.112 208.466 143.605 208.466H125.416Z" fill="#E5B739"/>
<path d="M243.038 135.555H163.483C161.294 135.555 159.521 137.33 159.521 139.519V139.542C159.521 141.731 161.294 143.506 163.483 143.506H243.038C245.226 143.506 247 141.731 247 139.542V139.519C247 137.33 245.226 135.555 243.038 135.555Z" fill="#E5B739"/>
<path d="M243.038 175.536H163.483C161.294 175.536 159.521 177.311 159.521 179.5V179.523C159.521 181.712 161.294 183.487 163.483 183.487H243.038C245.226 183.487 247 181.712 247 179.523V179.5C247 177.311 245.226 175.536 243.038 175.536Z" fill="#E5B739"/>
<path d="M243.038 215.516H163.483C161.294 215.516 159.521 217.291 159.521 219.481V219.503C159.521 221.693 161.294 223.468 163.483 223.468H243.038C245.226 223.468 247 221.693 247 219.503V219.481C247 217.291 245.226 215.516 243.038 215.516Z" fill="#E5B739"/>
<path d="M129.162 180.373C128.756 180.065 128.177 180.145 127.869 180.552C127.561 180.958 127.641 181.537 128.047 181.845L133.394 185.899C133.8 186.207 134.379 186.127 134.687 185.721C134.995 185.314 134.915 184.735 134.509 184.427L129.162 180.373Z" fill="#E5B739"/>
<path d="M142.702 175.248C143.01 174.841 142.93 174.262 142.524 173.954C142.117 173.646 141.539 173.726 141.231 174.132L133.278 184.635C132.97 185.041 133.05 185.621 133.456 185.929C133.862 186.237 134.441 186.157 134.749 185.75L142.702 175.248Z" fill="#E5B739"/>
</g>
<g filter="url(#filter0_d_692_124)">
<path d="M182.793 323.587C103.379 323.587 39 259.208 39 179.793C39 100.379 103.379 36 182.793 36C262.208 36 326.587 100.379 326.587 179.793C326.587 259.208 262.208 323.587 182.793 323.587ZM182.793 64.7587C119.262 64.7587 67.7587 116.262 67.7587 179.793C67.7587 243.325 119.262 294.828 182.793 294.828C246.325 294.828 297.828 243.325 297.828 179.793C297.828 116.262 246.325 64.7587 182.793 64.7587Z" fill="#4A007F"/>
</g>
<defs>
<filter id="filter0_d_692_124" x="0" y="1.52588e-05" width="367.587" height="367.587" filterUnits="userSpaceOnUse" color-interpolation-filters="sRGB">
<feFlood flood-opacity="0" result="BackgroundImageFix"/>
<feColorMatrix in="SourceAlpha" type="matrix" values="0 0 0 0 0 0 0 0 0 0 0 0 0 0 0 0 0 0 127 0" result="hardAlpha"/>
<feOffset dx="1" dy="4"/>
<feGaussianBlur stdDeviation="20"/>
<feComposite in2="hardAlpha" operator="out"/>
<feColorMatrix type="matrix" values="0 0 0 0 0.290196 0 0 0 0 0 0 0 0 0 0.498039 0 0 0 0.3 0"/>
<feBlend mode="normal" in2="BackgroundImageFix" result="effect1_dropShadow_692_124"/>
<feBlend mode="normal" in="SourceGraphic" in2="effect1_dropShadow_692_124" result="shape"/>
</filter>
<clipPath id="clip0_692_124">
<rect width="128" height="111" fill="white" transform="translate(119 124)"/>
</clipPath>
</defs>
</svg>
