<svg width="368" height="368" viewBox="0 0 368 368" fill="none" xmlns="http://www.w3.org/2000/svg">
<g clip-path="url(#clip0_692_122)">
<path d="M231.667 131.317C227.529 131.317 223.332 131.317 219.016 131.019L213.658 130.811C212.318 130.766 211.04 130.232 210.064 129.311C209.089 128.389 208.483 127.143 208.36 125.806C208.36 124.138 208.36 122.827 208.36 121.397C208.36 118.895 208.36 119.997 208.539 112.788C208.539 111.15 208.539 110.315 208.539 108.886C208.539 107.456 208.539 106.681 208.539 105.907C208.539 105.132 207.944 104.089 206.872 104.089H146.687C142.526 104.089 138.536 105.743 135.595 108.688C132.653 111.632 131 115.625 131 119.789V241.271C130.988 243.34 131.386 245.391 132.169 247.306C132.952 249.221 134.105 250.963 135.563 252.43C137.021 253.897 138.754 255.062 140.663 255.856C142.572 256.651 144.619 257.06 146.687 257.06H219.314C223.474 257.06 227.464 255.406 230.406 252.461C233.348 249.517 235 245.524 235 241.36V134.654C235.004 134.214 234.921 133.779 234.755 133.372C234.588 132.966 234.343 132.596 234.033 132.286C233.722 131.975 233.353 131.729 232.947 131.563C232.541 131.397 232.105 131.313 231.667 131.317V131.317ZM172.88 213.537H149.217C148.835 213.577 148.449 213.536 148.084 213.417C147.72 213.299 147.384 213.104 147.099 212.847C146.814 212.59 146.586 212.276 146.43 211.926C146.274 211.575 146.193 211.195 146.193 210.811C146.193 210.427 146.274 210.047 146.43 209.697C146.586 209.346 146.814 209.032 147.099 208.775C147.384 208.518 147.72 208.324 148.084 208.205C148.449 208.086 148.835 208.045 149.217 208.085H172.88C173.262 208.045 173.647 208.086 174.012 208.205C174.377 208.324 174.713 208.518 174.998 208.775C175.283 209.032 175.511 209.346 175.667 209.697C175.823 210.047 175.904 210.427 175.904 210.811C175.904 211.195 175.823 211.575 175.667 211.926C175.511 212.276 175.283 212.59 174.998 212.847C174.713 213.104 174.377 213.299 174.012 213.417C173.647 213.536 173.262 213.577 172.88 213.537ZM172.88 202.932H149.217C148.835 202.972 148.449 202.931 148.084 202.812C147.72 202.693 147.384 202.499 147.099 202.242C146.814 201.985 146.586 201.671 146.43 201.32C146.274 200.97 146.193 200.59 146.193 200.206C146.193 199.822 146.274 199.442 146.43 199.091C146.586 198.741 146.814 198.427 147.099 198.17C147.384 197.913 147.72 197.718 148.084 197.6C148.449 197.481 148.835 197.44 149.217 197.48H172.88C173.262 197.44 173.647 197.481 174.012 197.6C174.377 197.718 174.713 197.913 174.998 198.17C175.283 198.427 175.511 198.741 175.667 199.091C175.823 199.442 175.904 199.822 175.904 200.206C175.904 200.59 175.823 200.97 175.667 201.32C175.511 201.671 175.283 201.985 174.998 202.242C174.713 202.499 174.377 202.693 174.012 202.812C173.647 202.931 173.262 202.972 172.88 202.932ZM216.814 192.356H149.217C148.835 192.396 148.449 192.356 148.084 192.237C147.72 192.118 147.384 191.924 147.099 191.667C146.814 191.41 146.586 191.096 146.43 190.745C146.274 190.394 146.193 190.015 146.193 189.631C146.193 189.247 146.274 188.867 146.43 188.516C146.586 188.165 146.814 187.851 147.099 187.594C147.384 187.337 147.72 187.143 148.084 187.024C148.449 186.906 148.835 186.865 149.217 186.905H216.814C217.487 186.975 218.11 187.293 218.563 187.796C219.016 188.3 219.267 188.953 219.267 189.631C219.267 190.308 219.016 190.961 218.563 191.465C218.11 191.968 217.487 192.286 216.814 192.356V192.356ZM216.814 181.751H149.217C148.835 181.791 148.449 181.75 148.084 181.632C147.72 181.513 147.384 181.319 147.099 181.062C146.814 180.805 146.586 180.491 146.43 180.14C146.274 179.789 146.193 179.409 146.193 179.025C146.193 178.641 146.274 178.262 146.43 177.911C146.586 177.56 146.814 177.246 147.099 176.989C147.384 176.732 147.72 176.538 148.084 176.419C148.449 176.3 148.835 176.26 149.217 176.3H216.814C217.487 176.37 218.11 176.688 218.563 177.191C219.016 177.694 219.267 178.348 219.267 179.025C219.267 179.703 219.016 180.356 218.563 180.86C218.11 181.363 217.487 181.681 216.814 181.751V181.751ZM216.814 171.176H149.217C148.835 171.216 148.449 171.175 148.084 171.056C147.72 170.938 147.384 170.743 147.099 170.486C146.814 170.229 146.586 169.915 146.43 169.565C146.274 169.214 146.193 168.834 146.193 168.45C146.193 168.066 146.274 167.686 146.43 167.336C146.586 166.985 146.814 166.671 147.099 166.414C147.384 166.157 147.72 165.963 148.084 165.844C148.449 165.725 148.835 165.684 149.217 165.724H216.814C217.487 165.795 218.11 166.112 218.563 166.616C219.016 167.119 219.267 167.773 219.267 168.45C219.267 169.128 219.016 169.781 218.563 170.284C218.11 170.788 217.487 171.105 216.814 171.176V171.176ZM216.814 160.571H149.217C148.835 160.611 148.449 160.57 148.084 160.451C147.72 160.332 147.384 160.138 147.099 159.881C146.814 159.624 146.586 159.31 146.43 158.959C146.274 158.609 146.193 158.229 146.193 157.845C146.193 157.461 146.274 157.081 146.43 156.73C146.586 156.38 146.814 156.066 147.099 155.809C147.384 155.552 147.72 155.357 148.084 155.239C148.449 155.12 148.835 155.079 149.217 155.119H216.814C217.487 155.19 218.11 155.507 218.563 156.011C219.016 156.514 219.267 157.167 219.267 157.845C219.267 158.522 219.016 159.176 218.563 159.679C218.11 160.183 217.487 160.5 216.814 160.571V160.571Z" fill="#E5B739"/>
<path d="M234.167 125.985L215.742 106.621C214.671 105.43 212.17 106.026 212.14 107.664C211.932 113.622 212.141 120.057 211.962 126.372C211.962 127.415 213.391 128.428 214.522 128.487L232.381 129.083C232.76 129.132 233.145 129.068 233.488 128.899C233.831 128.729 234.116 128.462 234.307 128.131C234.498 127.799 234.587 127.418 234.562 127.036C234.537 126.654 234.399 126.289 234.167 125.985Z" fill="#E5B739"/>
</g>
<g filter="url(#filter0_d_692_122)">
<path d="M182.793 323.587C103.379 323.587 39 259.208 39 179.793C39 100.379 103.379 36 182.793 36C262.208 36 326.587 100.379 326.587 179.793C326.587 259.208 262.208 323.587 182.793 323.587ZM182.793 64.7587C119.262 64.7587 67.7587 116.261 67.7587 179.793C67.7587 243.325 119.262 294.828 182.793 294.828C246.325 294.828 297.828 243.325 297.828 179.793C297.828 116.262 246.325 64.7587 182.793 64.7587Z" fill="#4A007F"/>
</g>
<defs>
<filter id="filter0_d_692_122" x="0" y="0" width="367.587" height="367.587" filterUnits="userSpaceOnUse" color-interpolation-filters="sRGB">
<feFlood flood-opacity="0" result="BackgroundImageFix"/>
<feColorMatrix in="SourceAlpha" type="matrix" values="0 0 0 0 0 0 0 0 0 0 0 0 0 0 0 0 0 0 127 0" result="hardAlpha"/>
<feOffset dx="1" dy="4"/>
<feGaussianBlur stdDeviation="20"/>
<feComposite in2="hardAlpha" operator="out"/>
<feColorMatrix type="matrix" values="0 0 0 0 0.290196 0 0 0 0 0 0 0 0 0 0.498039 0 0 0 0.3 0"/>
<feBlend mode="normal" in2="BackgroundImageFix" result="effect1_dropShadow_692_122"/>
<feBlend mode="normal" in="SourceGraphic" in2="effect1_dropShadow_692_122" result="shape"/>
</filter>
<clipPath id="clip0_692_122">
<rect width="104" height="153" fill="white" transform="translate(131 104)"/>
</clipPath>
</defs>
</svg>
