<svg width="368" height="368" viewBox="0 0 368 368" fill="none" xmlns="http://www.w3.org/2000/svg">
<g filter="url(#filter0_d_692_107)">
<path d="M183 323.793C103.585 323.793 39.2061 259.415 39.2061 180C39.2061 100.585 103.585 36.2065 183 36.2065C262.414 36.2065 326.793 100.585 326.793 180C326.793 259.415 262.414 323.793 183 323.793ZM183 64.9652C119.468 64.9652 67.9648 116.468 67.9648 180C67.9648 243.532 119.468 295.035 183 295.035C246.531 295.035 298.034 243.532 298.034 180C298.034 116.468 246.531 64.9652 183 64.9652Z" fill="#4A007F"/>
</g>
<path d="M228.013 134.071H136.877C130.561 134.079 124.506 136.593 120.042 141.062C115.579 145.53 113.071 151.588 113.071 157.904V201.124C113.071 207.44 115.579 213.498 120.042 217.966C124.506 222.435 130.561 224.949 136.877 224.957H228.013C234.329 224.949 240.384 222.435 244.847 217.966C249.311 213.498 251.818 207.44 251.818 201.124V157.904C251.818 151.588 249.311 145.53 244.847 141.062C240.384 136.593 234.329 134.079 228.013 134.071ZM199.899 181.351L167.974 198.252C167.444 198.535 166.849 198.676 166.249 198.659C165.648 198.643 165.062 198.47 164.549 198.157C164.036 197.845 163.613 197.404 163.322 196.878C163.032 196.352 162.883 195.759 162.892 195.159V161.246C162.854 160.642 162.975 160.039 163.244 159.496C163.512 158.954 163.919 158.492 164.422 158.156C164.926 157.821 165.509 157.623 166.113 157.584C166.717 157.544 167.32 157.664 167.863 157.932L199.788 174.833C200.354 175.163 200.826 175.634 201.157 176.199C201.488 176.764 201.668 177.406 201.679 178.061C201.69 178.716 201.532 179.363 201.22 179.939C200.908 180.515 200.453 181.001 199.899 181.351V181.351Z" fill="#E5B739"/>
<path d="M228.013 227.028H136.877C130.011 227.02 123.43 224.288 118.578 219.431C113.725 214.574 111 207.989 111 201.124V157.904C111 151.039 113.725 144.454 118.578 139.597C123.43 134.74 130.011 132.008 136.877 132H228.013C231.424 131.986 234.804 132.645 237.96 133.94C241.115 135.236 243.984 137.141 246.401 139.548C248.818 141.955 250.736 144.816 252.045 147.966C253.354 151.116 254.028 154.493 254.028 157.904V201.124C254.028 204.535 253.354 207.912 252.045 211.062C250.736 214.212 248.818 217.073 246.401 219.48C243.984 221.887 241.115 223.793 237.96 225.088C234.804 226.383 231.424 227.042 228.013 227.028ZM136.877 136.143C131.112 136.157 125.588 138.456 121.515 142.534C117.441 146.613 115.15 152.14 115.143 157.904V201.124C115.179 206.855 117.471 212.341 121.524 216.393C125.577 220.446 131.063 222.739 136.794 222.775H227.93C233.694 222.76 239.218 220.462 243.292 216.383C247.366 212.305 249.657 206.778 249.664 201.013V157.904C249.657 152.14 247.366 146.613 243.292 142.534C239.218 138.456 233.694 136.157 227.93 136.143H136.877ZM166.427 200.682C165.452 200.689 164.495 200.421 163.665 199.909C162.809 199.389 162.104 198.654 161.619 197.777C161.135 196.9 160.888 195.912 160.904 194.91V161.246C160.888 160.244 161.135 159.256 161.619 158.379C162.104 157.502 162.809 156.767 163.665 156.247C164.463 155.787 165.368 155.544 166.289 155.544C167.21 155.544 168.115 155.787 168.913 156.247L200.865 173.066C201.779 173.58 202.539 174.328 203.069 175.233C203.598 176.138 203.877 177.168 203.877 178.216C203.877 179.265 203.598 180.294 203.069 181.199C202.539 182.104 201.779 182.852 200.865 183.366L168.94 200.24C168.148 200.581 167.288 200.733 166.427 200.682V200.682ZM166.427 159.506C166.214 159.512 166.006 159.568 165.819 159.672C165.581 159.832 165.387 160.05 165.256 160.307C165.126 160.563 165.063 160.848 165.074 161.135V195.159C165.063 195.446 165.126 195.731 165.256 195.988C165.387 196.244 165.581 196.462 165.819 196.622C165.997 196.721 166.196 196.774 166.399 196.774C166.602 196.774 166.802 196.721 166.979 196.622L198.932 179.721C199.177 179.56 199.378 179.341 199.517 179.083C199.657 178.825 199.729 178.537 199.729 178.244C199.729 177.951 199.657 177.662 199.517 177.404C199.378 177.146 199.177 176.927 198.932 176.766L166.979 159.865C166.823 159.731 166.631 159.645 166.427 159.617V159.506Z" fill="#E5B739"/>
<defs>
<filter id="filter0_d_692_107" x="0.206055" y="0.206543" width="367.587" height="367.587" filterUnits="userSpaceOnUse" color-interpolation-filters="sRGB">
<feFlood flood-opacity="0" result="BackgroundImageFix"/>
<feColorMatrix in="SourceAlpha" type="matrix" values="0 0 0 0 0 0 0 0 0 0 0 0 0 0 0 0 0 0 127 0" result="hardAlpha"/>
<feOffset dx="1" dy="4"/>
<feGaussianBlur stdDeviation="20"/>
<feComposite in2="hardAlpha" operator="out"/>
<feColorMatrix type="matrix" values="0 0 0 0 0.290196 0 0 0 0 0 0 0 0 0 0.498039 0 0 0 0.3 0"/>
<feBlend mode="normal" in2="BackgroundImageFix" result="effect1_dropShadow_692_107"/>
<feBlend mode="normal" in="SourceGraphic" in2="effect1_dropShadow_692_107" result="shape"/>
</filter>
</defs>
</svg>
